<svg id="Layer_1" data-name="Layer 1" xmlns="http://www.w3.org/2000/svg" viewBox="0 0 177.26 177.26"><defs><style>.cls-1{fill:#212f3d;}</style></defs><path class="cls-1" d="M131,76.2a88.63,88.63,0,1,0,88.63,88.63A88.63,88.63,0,0,0,131,76.2Zm52.73,119.9a21.45,21.45,0,0,1-21.46,21.45H99.68A21.45,21.45,0,0,1,78.23,196.1V133.56A21.45,21.45,0,0,1,99.68,112.1h62.54a21.46,21.46,0,0,1,21.46,21.46Z" transform="translate(-42.32 -76.2)"/><path class="cls-1" d="M131,145.73A19.1,19.1,0,1,0,150,164.83,19.1,19.1,0,0,0,131,145.73Zm0,0A19.1,19.1,0,1,0,150,164.83,19.1,19.1,0,0,0,131,145.73Zm26.51-27.09h-53a19.66,19.66,0,0,0-19.65,19.67v53A19.66,19.66,0,0,0,104.42,211h53a19.67,19.67,0,0,0,19.68-19.66v-53A19.68,19.68,0,0,0,157.46,118.64ZM131,191.45a26.62,26.62,0,1,1,26.62-26.62A26.62,26.62,0,0,1,131,191.45ZM160,144.65a8.74,8.74,0,1,1,8.72-8.74A8.73,8.73,0,0,1,160,144.65ZM131,145.73A19.1,19.1,0,1,0,150,164.83,19.1,19.1,0,0,0,131,145.73Z" transform="translate(-42.32 -76.2)"/></svg>